<mxfile host="app.diagrams.net" agent="Mozilla/5.0 (X11; Linux x86_64; rv:133.0) Gecko/20100101 Firefox/133.0" version="25.0.3">
  <diagram name="Page-1" id="n_fIoMRSlagMltUacNmM">
    <mxGraphModel dx="1178" dy="696" grid="0" gridSize="10" guides="1" tooltips="1" connect="1" arrows="1" fold="1" page="1" pageScale="1" pageWidth="1600" pageHeight="900" math="0" shadow="0">
      <root>
        <mxCell id="0" />
        <mxCell id="1" parent="0" />
        <mxCell id="aPVoymppLge1yWd1zrWZ-23" style="edgeStyle=orthogonalEdgeStyle;rounded=0;orthogonalLoop=1;jettySize=auto;html=1;exitX=1;exitY=0.5;exitDx=0;exitDy=0;entryX=0;entryY=0.5;entryDx=0;entryDy=0;curved=1;" parent="1" source="aPVoymppLge1yWd1zrWZ-10" target="aPVoymppLge1yWd1zrWZ-16" edge="1">
          <mxGeometry relative="1" as="geometry" />
        </mxCell>
        <mxCell id="aPVoymppLge1yWd1zrWZ-10" value="" style="rhombus;whiteSpace=wrap;html=1;fillColor=#b0e3e6;strokeColor=#0e8088;" parent="1" vertex="1">
          <mxGeometry x="265" y="420" width="80" height="80" as="geometry" />
        </mxCell>
        <mxCell id="aPVoymppLge1yWd1zrWZ-22" style="edgeStyle=orthogonalEdgeStyle;rounded=0;orthogonalLoop=1;jettySize=auto;html=1;exitX=1;exitY=0.5;exitDx=0;exitDy=0;entryX=0;entryY=0.5;entryDx=0;entryDy=0;curved=1;" parent="1" source="aPVoymppLge1yWd1zrWZ-11" target="aPVoymppLge1yWd1zrWZ-16" edge="1">
          <mxGeometry relative="1" as="geometry" />
        </mxCell>
        <mxCell id="aPVoymppLge1yWd1zrWZ-11" value="" style="rhombus;whiteSpace=wrap;html=1;fillColor=#b0e3e6;strokeColor=#0e8088;" parent="1" vertex="1">
          <mxGeometry x="325" y="500" width="80" height="80" as="geometry" />
        </mxCell>
        <mxCell id="aPVoymppLge1yWd1zrWZ-19" style="edgeStyle=orthogonalEdgeStyle;rounded=0;orthogonalLoop=1;jettySize=auto;html=1;exitX=1;exitY=0.5;exitDx=0;exitDy=0;entryX=0;entryY=0.5;entryDx=0;entryDy=0;curved=1;" parent="1" source="aPVoymppLge1yWd1zrWZ-12" target="aPVoymppLge1yWd1zrWZ-16" edge="1">
          <mxGeometry relative="1" as="geometry" />
        </mxCell>
        <mxCell id="aPVoymppLge1yWd1zrWZ-12" value="" style="rhombus;whiteSpace=wrap;html=1;fillColor=#b0e3e6;strokeColor=#0e8088;" parent="1" vertex="1">
          <mxGeometry x="265" y="580" width="80" height="80" as="geometry" />
        </mxCell>
        <mxCell id="aPVoymppLge1yWd1zrWZ-20" style="edgeStyle=orthogonalEdgeStyle;rounded=0;orthogonalLoop=1;jettySize=auto;html=1;exitX=1;exitY=0.5;exitDx=0;exitDy=0;entryX=0;entryY=0.5;entryDx=0;entryDy=0;curved=1;" parent="1" source="aPVoymppLge1yWd1zrWZ-13" target="aPVoymppLge1yWd1zrWZ-16" edge="1">
          <mxGeometry relative="1" as="geometry" />
        </mxCell>
        <mxCell id="aPVoymppLge1yWd1zrWZ-13" value="" style="rhombus;whiteSpace=wrap;html=1;fillColor=#b0e3e6;strokeColor=#0e8088;" parent="1" vertex="1">
          <mxGeometry x="325" y="660" width="80" height="80" as="geometry" />
        </mxCell>
        <mxCell id="aPVoymppLge1yWd1zrWZ-28" style="edgeStyle=orthogonalEdgeStyle;rounded=0;orthogonalLoop=1;jettySize=auto;html=1;exitX=1;exitY=0.5;exitDx=0;exitDy=0;" parent="1" source="aPVoymppLge1yWd1zrWZ-16" target="aPVoymppLge1yWd1zrWZ-24" edge="1">
          <mxGeometry relative="1" as="geometry">
            <Array as="points">
              <mxPoint x="665" y="580" />
              <mxPoint x="665" y="580" />
            </Array>
          </mxGeometry>
        </mxCell>
        <mxCell id="aPVoymppLge1yWd1zrWZ-43" value="&lt;div&gt;Push&lt;/div&gt;&lt;div&gt;socket&lt;/div&gt;&lt;div&gt;descriptor&lt;/div&gt;" style="edgeLabel;html=1;align=center;verticalAlign=middle;resizable=0;points=[];" parent="aPVoymppLge1yWd1zrWZ-28" vertex="1" connectable="0">
          <mxGeometry x="0.0286" y="1" relative="1" as="geometry">
            <mxPoint x="-6" y="1" as="offset" />
          </mxGeometry>
        </mxCell>
        <mxCell id="aPVoymppLge1yWd1zrWZ-16" value="&lt;div&gt;&lt;b&gt;&lt;font style=&quot;font-size: 16px;&quot;&gt;Jalebi&lt;/font&gt;&lt;/b&gt;&lt;/div&gt;&lt;div&gt;&lt;font style=&quot;font-size: 11px;&quot;&gt;&lt;br&gt;&lt;/font&gt;&lt;/div&gt;&lt;div align=&quot;left&quot;&gt;&lt;font data-font-src=&quot;https://fonts.googleapis.com/css?family=IBM+Plex+Mono&quot; face=&quot;IBM Plex Mono&quot; style=&quot;font-size: 11px;&quot;&gt;main()&lt;b&gt;&lt;font&gt; &lt;/font&gt;&lt;/b&gt;&lt;font&gt;{&lt;/font&gt;&lt;/font&gt;&lt;/div&gt;&lt;div align=&quot;left&quot;&gt;&lt;font data-font-src=&quot;https://fonts.googleapis.com/css?family=IBM+Plex+Mono&quot; face=&quot;IBM Plex Mono&quot; style=&quot;font-size: 11px;&quot;&gt;&lt;font&gt;&lt;span style=&quot;white-space: pre;&quot;&gt;&#x9;&lt;/span&gt;0. Init&lt;br&gt;&lt;/font&gt;&lt;/font&gt;&lt;/div&gt;&lt;div align=&quot;left&quot;&gt;&lt;font data-font-src=&quot;https://fonts.googleapis.com/css?family=IBM+Plex+Mono&quot; face=&quot;IBM Plex Mono&quot; style=&quot;font-size: 11px;&quot;&gt;&lt;font&gt;&lt;span style=&quot;white-space: pre;&quot;&gt;&#x9;&lt;/span&gt;1. accept()&lt;/font&gt;&lt;/font&gt;&lt;/div&gt;&lt;div align=&quot;left&quot;&gt;&lt;font data-font-src=&quot;https://fonts.googleapis.com/css?family=IBM+Plex+Mono&quot; face=&quot;IBM Plex Mono&quot; style=&quot;font-size: 11px;&quot;&gt;&lt;font&gt;&lt;span style=&quot;white-space: pre;&quot;&gt;&#x9;&lt;/span&gt;2. push&lt;br&gt;&lt;/font&gt;&lt;/font&gt;&lt;/div&gt;&lt;div align=&quot;left&quot;&gt;&lt;font data-font-src=&quot;https://fonts.googleapis.com/css?family=IBM+Plex+Mono&quot; face=&quot;IBM Plex Mono&quot; style=&quot;font-size: 11px;&quot;&gt;&lt;font&gt;&lt;span style=&quot;white-space: pre;&quot;&gt;&#x9;&lt;/span&gt;3. Goto 1&lt;br&gt;&lt;/font&gt;&lt;/font&gt;&lt;/div&gt;&lt;div align=&quot;left&quot;&gt;&lt;font data-font-src=&quot;https://fonts.googleapis.com/css?family=IBM+Plex+Mono&quot; face=&quot;IBM Plex Mono&quot; style=&quot;font-size: 11px;&quot;&gt;&lt;font&gt;}&lt;/font&gt;&lt;b&gt;&lt;font&gt;&lt;br&gt;&lt;/font&gt;&lt;/b&gt;&lt;/font&gt;&lt;/div&gt;" style="rounded=0;whiteSpace=wrap;html=1;" parent="1" vertex="1">
          <mxGeometry x="505" y="490" width="120" height="180" as="geometry" />
        </mxCell>
        <mxCell id="aPVoymppLge1yWd1zrWZ-24" value="&lt;div&gt;&lt;b&gt;&lt;font style=&quot;font-size: 16px;&quot;&gt;Client Queue&lt;/font&gt;&lt;/b&gt;&lt;/div&gt;" style="shape=cylinder3;whiteSpace=wrap;html=1;boundedLbl=1;backgroundOutline=1;size=15;fillColor=#fad7ac;strokeColor=#b46504;" parent="1" vertex="1">
          <mxGeometry x="695" y="510" width="60" height="140" as="geometry" />
        </mxCell>
        <mxCell id="aPVoymppLge1yWd1zrWZ-65" style="edgeStyle=orthogonalEdgeStyle;rounded=0;orthogonalLoop=1;jettySize=auto;html=1;exitX=0;exitY=0.25;exitDx=0;exitDy=0;entryX=1;entryY=0;entryDx=0;entryDy=0;strokeColor=none;curved=1;" parent="1" source="aPVoymppLge1yWd1zrWZ-32" target="aPVoymppLge1yWd1zrWZ-10" edge="1">
          <mxGeometry relative="1" as="geometry">
            <Array as="points">
              <mxPoint x="823" y="440" />
            </Array>
          </mxGeometry>
        </mxCell>
        <mxCell id="aPVoymppLge1yWd1zrWZ-66" style="edgeStyle=orthogonalEdgeStyle;rounded=0;orthogonalLoop=1;jettySize=auto;html=1;exitX=0;exitY=0.25;exitDx=0;exitDy=0;entryX=1;entryY=0;entryDx=0;entryDy=0;curved=1;dashed=1;startArrow=classic;startFill=1;fillColor=#b0e3e6;strokeColor=#0e8088;strokeWidth=2;" parent="1" source="aPVoymppLge1yWd1zrWZ-32" target="aPVoymppLge1yWd1zrWZ-10" edge="1">
          <mxGeometry relative="1" as="geometry">
            <Array as="points">
              <mxPoint x="823" y="440" />
            </Array>
          </mxGeometry>
        </mxCell>
        <mxCell id="aPVoymppLge1yWd1zrWZ-32" value="" style="shape=hexagon;perimeter=hexagonPerimeter2;whiteSpace=wrap;html=1;fixedSize=1;fillColor=#fad7ac;strokeColor=#b46504;" parent="1" vertex="1">
          <mxGeometry x="815" y="510" width="70" height="60" as="geometry" />
        </mxCell>
        <mxCell id="aPVoymppLge1yWd1zrWZ-94" style="edgeStyle=orthogonalEdgeStyle;rounded=0;orthogonalLoop=1;jettySize=auto;html=1;exitX=1;exitY=0.5;exitDx=0;exitDy=0;curved=1;" parent="1" source="aPVoymppLge1yWd1zrWZ-35" edge="1">
          <mxGeometry relative="1" as="geometry">
            <mxPoint x="1045" y="580" as="targetPoint" />
          </mxGeometry>
        </mxCell>
        <mxCell id="aPVoymppLge1yWd1zrWZ-98" value="Push" style="edgeLabel;html=1;align=center;verticalAlign=middle;resizable=0;points=[];" parent="aPVoymppLge1yWd1zrWZ-94" vertex="1" connectable="0">
          <mxGeometry x="-0.602" relative="1" as="geometry">
            <mxPoint as="offset" />
          </mxGeometry>
        </mxCell>
        <mxCell id="aPVoymppLge1yWd1zrWZ-145" style="edgeStyle=orthogonalEdgeStyle;rounded=0;orthogonalLoop=1;jettySize=auto;html=1;exitX=0.5;exitY=1;exitDx=0;exitDy=0;fillColor=#d0cee2;strokeColor=#56517e;curved=0;startArrow=classic;startFill=1;endArrow=none;endFill=0;dashed=1;dashPattern=8 8;" parent="1" source="aPVoymppLge1yWd1zrWZ-35" target="aPVoymppLge1yWd1zrWZ-132" edge="1">
          <mxGeometry relative="1" as="geometry">
            <Array as="points">
              <mxPoint x="910" y="800" />
              <mxPoint x="1400" y="800" />
            </Array>
          </mxGeometry>
        </mxCell>
        <mxCell id="aPVoymppLge1yWd1zrWZ-156" value="&lt;font color=&quot;#a680b8&quot;&gt;Read answer from hashmap&lt;br&gt;&lt;/font&gt;" style="edgeLabel;html=1;align=center;verticalAlign=middle;resizable=0;points=[];" parent="aPVoymppLge1yWd1zrWZ-145" vertex="1" connectable="0">
          <mxGeometry x="0.0581" relative="1" as="geometry">
            <mxPoint as="offset" />
          </mxGeometry>
        </mxCell>
        <mxCell id="aPVoymppLge1yWd1zrWZ-35" value="" style="shape=hexagon;perimeter=hexagonPerimeter2;whiteSpace=wrap;html=1;fixedSize=1;fillColor=#fad7ac;strokeColor=#b46504;" parent="1" vertex="1">
          <mxGeometry x="875" y="550" width="70" height="60" as="geometry" />
        </mxCell>
        <mxCell id="aPVoymppLge1yWd1zrWZ-62" style="edgeStyle=orthogonalEdgeStyle;rounded=0;orthogonalLoop=1;jettySize=auto;html=1;exitX=0;exitY=0.75;exitDx=0;exitDy=0;entryX=1;entryY=1;entryDx=0;entryDy=0;curved=1;dashed=1;flowAnimation=0;shadow=0;startArrow=classic;startFill=1;fillColor=#b0e3e6;strokeColor=#0e8088;strokeWidth=2;" parent="1" source="aPVoymppLge1yWd1zrWZ-36" target="aPVoymppLge1yWd1zrWZ-13" edge="1">
          <mxGeometry relative="1" as="geometry">
            <Array as="points">
              <mxPoint x="823" y="720" />
            </Array>
          </mxGeometry>
        </mxCell>
        <mxCell id="aPVoymppLge1yWd1zrWZ-143" style="edgeStyle=orthogonalEdgeStyle;rounded=0;orthogonalLoop=1;jettySize=auto;html=1;exitX=0.5;exitY=1;exitDx=0;exitDy=0;entryX=0;entryY=0.75;entryDx=0;entryDy=0;fillColor=#d0cee2;strokeColor=#56517e;curved=0;startArrow=classic;startFill=1;endArrow=none;endFill=0;dashed=1;dashPattern=8 8;" parent="1" source="aPVoymppLge1yWd1zrWZ-36" target="aPVoymppLge1yWd1zrWZ-132" edge="1">
          <mxGeometry relative="1" as="geometry">
            <Array as="points">
              <mxPoint x="850" y="818" />
            </Array>
          </mxGeometry>
        </mxCell>
        <mxCell id="aPVoymppLge1yWd1zrWZ-36" value="" style="shape=hexagon;perimeter=hexagonPerimeter2;whiteSpace=wrap;html=1;fixedSize=1;size=20;fillColor=#fad7ac;strokeColor=#b46504;" parent="1" vertex="1">
          <mxGeometry x="815" y="590" width="70" height="60" as="geometry" />
        </mxCell>
        <mxCell id="aPVoymppLge1yWd1zrWZ-37" value="&lt;div&gt;&lt;b&gt;&lt;font style=&quot;font-size: 16px;&quot;&gt;Client Communication&lt;/font&gt;&lt;/b&gt;&lt;/div&gt;&lt;div&gt;&lt;b&gt;&lt;font style=&quot;font-size: 16px;&quot;&gt;Threadpool&lt;/font&gt;&lt;/b&gt;&lt;/div&gt;" style="text;html=1;align=center;verticalAlign=middle;resizable=0;points=[];autosize=1;strokeColor=#d79b00;fillColor=#ffe6cc;sketch=1;curveFitting=1;jiggle=2;" parent="1" vertex="1">
          <mxGeometry x="725" y="330" width="190" height="50" as="geometry" />
        </mxCell>
        <mxCell id="aPVoymppLge1yWd1zrWZ-38" style="edgeStyle=orthogonalEdgeStyle;rounded=0;orthogonalLoop=1;jettySize=auto;html=1;exitX=0;exitY=0.5;exitDx=0;exitDy=0;entryX=1;entryY=0;entryDx=0;entryDy=42.5;entryPerimeter=0;curved=1;" parent="1" source="aPVoymppLge1yWd1zrWZ-32" target="aPVoymppLge1yWd1zrWZ-24" edge="1">
          <mxGeometry relative="1" as="geometry" />
        </mxCell>
        <mxCell id="aPVoymppLge1yWd1zrWZ-46" value="Pop" style="edgeLabel;html=1;align=center;verticalAlign=middle;resizable=0;points=[];" parent="aPVoymppLge1yWd1zrWZ-38" vertex="1" connectable="0">
          <mxGeometry x="-0.2507" y="2" relative="1" as="geometry">
            <mxPoint as="offset" />
          </mxGeometry>
        </mxCell>
        <mxCell id="aPVoymppLge1yWd1zrWZ-39" style="edgeStyle=orthogonalEdgeStyle;rounded=0;orthogonalLoop=1;jettySize=auto;html=1;exitX=0;exitY=0.5;exitDx=0;exitDy=0;entryX=1;entryY=0;entryDx=0;entryDy=97.5;entryPerimeter=0;curved=1;" parent="1" source="aPVoymppLge1yWd1zrWZ-36" target="aPVoymppLge1yWd1zrWZ-24" edge="1">
          <mxGeometry relative="1" as="geometry" />
        </mxCell>
        <mxCell id="aPVoymppLge1yWd1zrWZ-48" value="Pop" style="edgeLabel;html=1;align=center;verticalAlign=middle;resizable=0;points=[];" parent="aPVoymppLge1yWd1zrWZ-39" vertex="1" connectable="0">
          <mxGeometry x="-0.2672" y="-2" relative="1" as="geometry">
            <mxPoint as="offset" />
          </mxGeometry>
        </mxCell>
        <mxCell id="aPVoymppLge1yWd1zrWZ-40" style="edgeStyle=orthogonalEdgeStyle;rounded=0;orthogonalLoop=1;jettySize=auto;html=1;entryX=1;entryY=0.5;entryDx=0;entryDy=0;entryPerimeter=0;curved=1;" parent="1" source="aPVoymppLge1yWd1zrWZ-35" target="aPVoymppLge1yWd1zrWZ-24" edge="1">
          <mxGeometry relative="1" as="geometry" />
        </mxCell>
        <mxCell id="aPVoymppLge1yWd1zrWZ-47" value="Pop" style="edgeLabel;html=1;align=center;verticalAlign=middle;resizable=0;points=[];" parent="aPVoymppLge1yWd1zrWZ-40" vertex="1" connectable="0">
          <mxGeometry x="0.0143" y="1" relative="1" as="geometry">
            <mxPoint as="offset" />
          </mxGeometry>
        </mxCell>
        <mxCell id="aPVoymppLge1yWd1zrWZ-49" value="" style="strokeWidth=2;html=1;shape=mxgraph.flowchart.annotation_1;align=left;pointerEvents=1;direction=south;fillColor=#ffe6cc;strokeColor=#d79b00;" parent="1" vertex="1">
          <mxGeometry x="675" y="390" width="290" height="20" as="geometry" />
        </mxCell>
        <mxCell id="aPVoymppLge1yWd1zrWZ-53" value="&lt;div&gt;&lt;b&gt;&lt;font style=&quot;font-size: 16px;&quot;&gt;Clients&lt;/font&gt;&lt;/b&gt;&lt;/div&gt;" style="text;html=1;align=center;verticalAlign=middle;resizable=0;points=[];autosize=1;strokeColor=#10739e;fillColor=#b1ddf0;sketch=1;curveFitting=1;jiggle=2;" parent="1" vertex="1">
          <mxGeometry x="295" y="350" width="80" height="30" as="geometry" />
        </mxCell>
        <mxCell id="aPVoymppLge1yWd1zrWZ-54" value="" style="strokeWidth=2;html=1;shape=mxgraph.flowchart.annotation_1;align=left;pointerEvents=1;direction=south;fillColor=#b1ddf0;strokeColor=#10739e;" parent="1" vertex="1">
          <mxGeometry x="235" y="390" width="200" height="20" as="geometry" />
        </mxCell>
        <mxCell id="aPVoymppLge1yWd1zrWZ-74" style="edgeStyle=orthogonalEdgeStyle;rounded=0;orthogonalLoop=1;jettySize=auto;html=1;exitX=1;exitY=0.5;exitDx=0;exitDy=0;entryX=0;entryY=0.5;entryDx=0;entryDy=0;dashed=1;dashPattern=1 4;curved=1;" parent="1" source="aPVoymppLge1yWd1zrWZ-67" target="aPVoymppLge1yWd1zrWZ-10" edge="1">
          <mxGeometry relative="1" as="geometry" />
        </mxCell>
        <mxCell id="aPVoymppLge1yWd1zrWZ-75" style="edgeStyle=orthogonalEdgeStyle;rounded=0;orthogonalLoop=1;jettySize=auto;html=1;exitX=1;exitY=0.5;exitDx=0;exitDy=0;entryX=0;entryY=0.5;entryDx=0;entryDy=0;dashed=1;dashPattern=1 4;curved=1;" parent="1" source="aPVoymppLge1yWd1zrWZ-67" target="aPVoymppLge1yWd1zrWZ-11" edge="1">
          <mxGeometry relative="1" as="geometry" />
        </mxCell>
        <mxCell id="aPVoymppLge1yWd1zrWZ-67" value="&lt;div&gt;User #1&lt;/div&gt;" style="ellipse;whiteSpace=wrap;html=1;aspect=fixed;" parent="1" vertex="1">
          <mxGeometry x="125" y="490" width="80" height="80" as="geometry" />
        </mxCell>
        <mxCell id="aPVoymppLge1yWd1zrWZ-72" style="edgeStyle=orthogonalEdgeStyle;rounded=0;orthogonalLoop=1;jettySize=auto;html=1;exitX=1;exitY=0.5;exitDx=0;exitDy=0;curved=1;dashed=1;dashPattern=1 4;entryX=0;entryY=0.5;entryDx=0;entryDy=0;" parent="1" source="aPVoymppLge1yWd1zrWZ-68" target="aPVoymppLge1yWd1zrWZ-12" edge="1">
          <mxGeometry relative="1" as="geometry">
            <mxPoint x="255" y="620" as="targetPoint" />
            <Array as="points">
              <mxPoint x="230" y="660" />
              <mxPoint x="230" y="621" />
            </Array>
          </mxGeometry>
        </mxCell>
        <mxCell id="aPVoymppLge1yWd1zrWZ-73" style="edgeStyle=orthogonalEdgeStyle;rounded=0;orthogonalLoop=1;jettySize=auto;html=1;exitX=1;exitY=0.5;exitDx=0;exitDy=0;entryX=0;entryY=0.5;entryDx=0;entryDy=0;curved=1;dashed=1;dashPattern=1 4;" parent="1" source="aPVoymppLge1yWd1zrWZ-68" target="aPVoymppLge1yWd1zrWZ-13" edge="1">
          <mxGeometry relative="1" as="geometry" />
        </mxCell>
        <mxCell id="aPVoymppLge1yWd1zrWZ-68" value="&lt;div&gt;User #2&lt;/div&gt;" style="ellipse;whiteSpace=wrap;html=1;aspect=fixed;" parent="1" vertex="1">
          <mxGeometry x="125" y="620" width="80" height="80" as="geometry" />
        </mxCell>
        <mxCell id="aPVoymppLge1yWd1zrWZ-76" value="&lt;div&gt;&lt;b&gt;&lt;font style=&quot;font-size: 16px;&quot;&gt;Users&lt;/font&gt;&lt;/b&gt;&lt;/div&gt;" style="text;html=1;align=center;verticalAlign=middle;resizable=0;points=[];autosize=1;strokeColor=none;fillColor=none;sketch=1;curveFitting=1;jiggle=2;" parent="1" vertex="1">
          <mxGeometry x="130" y="350" width="70" height="30" as="geometry" />
        </mxCell>
        <mxCell id="aPVoymppLge1yWd1zrWZ-77" value="" style="strokeWidth=2;html=1;shape=mxgraph.flowchart.annotation_1;align=left;pointerEvents=1;direction=south;" parent="1" vertex="1">
          <mxGeometry x="100" y="390" width="130" height="20" as="geometry" />
        </mxCell>
        <mxCell id="aPVoymppLge1yWd1zrWZ-80" value="&lt;div&gt;&lt;b&gt;&lt;font style=&quot;font-size: 16px;&quot;&gt;Task Queue&lt;/font&gt;&lt;/b&gt;&lt;/div&gt;" style="shape=cylinder3;whiteSpace=wrap;html=1;boundedLbl=1;backgroundOutline=1;size=15;fillColor=#fad9d5;strokeColor=#ae4132;" parent="1" vertex="1">
          <mxGeometry x="1045" y="510" width="60" height="140" as="geometry" />
        </mxCell>
        <mxCell id="aPVoymppLge1yWd1zrWZ-109" style="edgeStyle=orthogonalEdgeStyle;rounded=0;orthogonalLoop=1;jettySize=auto;html=1;exitX=0;exitY=0.75;exitDx=0;exitDy=0;entryX=0;entryY=0.75;entryDx=0;entryDy=0;curved=1;fillColor=#d5e8d4;strokeColor=#82b366;dashed=1;" parent="1" source="aPVoymppLge1yWd1zrWZ-81" target="aPVoymppLge1yWd1zrWZ-105" edge="1">
          <mxGeometry relative="1" as="geometry">
            <Array as="points">
              <mxPoint x="1165.75" y="472" />
            </Array>
          </mxGeometry>
        </mxCell>
        <mxCell id="aPVoymppLge1yWd1zrWZ-134" style="edgeStyle=orthogonalEdgeStyle;rounded=0;orthogonalLoop=1;jettySize=auto;html=1;exitX=1;exitY=0.5;exitDx=0;exitDy=0;entryX=1;entryY=0.75;entryDx=0;entryDy=0;fillColor=#d0cee2;strokeColor=#56517e;curved=0;dashed=1;dashPattern=8 8;" parent="1" source="aPVoymppLge1yWd1zrWZ-81" target="aPVoymppLge1yWd1zrWZ-132" edge="1">
          <mxGeometry relative="1" as="geometry" />
        </mxCell>
        <mxCell id="aPVoymppLge1yWd1zrWZ-157" value="&lt;font color=&quot;#a680b8&quot;&gt;Write answer&lt;/font&gt;" style="edgeLabel;html=1;align=center;verticalAlign=middle;resizable=0;points=[];" parent="aPVoymppLge1yWd1zrWZ-134" vertex="1" connectable="0">
          <mxGeometry x="0.4586" y="-1" relative="1" as="geometry">
            <mxPoint as="offset" />
          </mxGeometry>
        </mxCell>
        <mxCell id="aPVoymppLge1yWd1zrWZ-81" value="" style="shape=hexagon;perimeter=hexagonPerimeter2;whiteSpace=wrap;html=1;fixedSize=1;fillColor=#fad9d5;strokeColor=#ae4132;" parent="1" vertex="1">
          <mxGeometry x="1213.75" y="430" width="70" height="60" as="geometry" />
        </mxCell>
        <mxCell id="aPVoymppLge1yWd1zrWZ-107" style="edgeStyle=orthogonalEdgeStyle;rounded=0;orthogonalLoop=1;jettySize=auto;html=1;exitX=0;exitY=0.75;exitDx=0;exitDy=0;entryX=0;entryY=0.5;entryDx=0;entryDy=0;curved=1;fillColor=#d5e8d4;strokeColor=#82b366;dashed=1;" parent="1" source="aPVoymppLge1yWd1zrWZ-82" target="aPVoymppLge1yWd1zrWZ-105" edge="1">
          <mxGeometry relative="1" as="geometry">
            <Array as="points">
              <mxPoint x="1173.75" y="542" />
            </Array>
          </mxGeometry>
        </mxCell>
        <mxCell id="aPVoymppLge1yWd1zrWZ-119" style="edgeStyle=orthogonalEdgeStyle;rounded=0;orthogonalLoop=1;jettySize=auto;html=1;exitX=1;exitY=0.5;exitDx=0;exitDy=0;entryX=1;entryY=0.5;entryDx=0;entryDy=0;curved=1;startArrow=classic;startFill=1;endArrow=none;endFill=0;fillColor=#d5e8d4;strokeColor=#82b366;dashed=1;" parent="1" source="aPVoymppLge1yWd1zrWZ-82" target="aPVoymppLge1yWd1zrWZ-105" edge="1">
          <mxGeometry relative="1" as="geometry" />
        </mxCell>
        <mxCell id="aPVoymppLge1yWd1zrWZ-133" style="edgeStyle=orthogonalEdgeStyle;rounded=0;orthogonalLoop=1;jettySize=auto;html=1;exitX=1;exitY=0.75;exitDx=0;exitDy=0;fillColor=#d0cee2;strokeColor=#56517e;curved=0;dashed=1;dashPattern=8 8;" parent="1" source="aPVoymppLge1yWd1zrWZ-82" target="aPVoymppLge1yWd1zrWZ-132" edge="1">
          <mxGeometry relative="1" as="geometry">
            <Array as="points">
              <mxPoint x="1395" y="542" />
            </Array>
          </mxGeometry>
        </mxCell>
        <mxCell id="aPVoymppLge1yWd1zrWZ-82" value="" style="shape=hexagon;perimeter=hexagonPerimeter2;whiteSpace=wrap;html=1;fixedSize=1;fillColor=#fad9d5;strokeColor=#ae4132;" parent="1" vertex="1">
          <mxGeometry x="1213.75" y="500" width="70" height="60" as="geometry" />
        </mxCell>
        <mxCell id="aPVoymppLge1yWd1zrWZ-106" style="edgeStyle=orthogonalEdgeStyle;rounded=0;orthogonalLoop=1;jettySize=auto;html=1;exitX=0;exitY=0.75;exitDx=0;exitDy=0;entryX=0;entryY=0.25;entryDx=0;entryDy=0;curved=1;fillColor=#d5e8d4;strokeColor=#82b366;dashed=1;" parent="1" source="aPVoymppLge1yWd1zrWZ-83" target="aPVoymppLge1yWd1zrWZ-105" edge="1">
          <mxGeometry relative="1" as="geometry" />
        </mxCell>
        <mxCell id="aPVoymppLge1yWd1zrWZ-139" value="write task" style="edgeLabel;html=1;align=center;verticalAlign=middle;resizable=0;points=[];fontColor=#97D077;" parent="aPVoymppLge1yWd1zrWZ-106" vertex="1" connectable="0">
          <mxGeometry x="-0.0623" y="-1" relative="1" as="geometry">
            <mxPoint as="offset" />
          </mxGeometry>
        </mxCell>
        <mxCell id="aPVoymppLge1yWd1zrWZ-83" value="" style="shape=hexagon;perimeter=hexagonPerimeter2;whiteSpace=wrap;html=1;fixedSize=1;size=20;fillColor=#fad9d5;strokeColor=#ae4132;" parent="1" vertex="1">
          <mxGeometry x="1213.75" y="570" width="70" height="60" as="geometry" />
        </mxCell>
        <mxCell id="aPVoymppLge1yWd1zrWZ-84" value="&lt;b&gt;&lt;font style=&quot;font-size: 16px;&quot;&gt;Worker&lt;/font&gt;&lt;/b&gt;&lt;div&gt;&lt;b&gt;&lt;font style=&quot;font-size: 16px;&quot;&gt;Threadpool&lt;/font&gt;&lt;/b&gt;&lt;/div&gt;" style="text;html=1;align=center;verticalAlign=middle;resizable=0;points=[];autosize=1;strokeColor=#b85450;fillColor=#f8cecc;sketch=1;curveFitting=1;jiggle=2;" parent="1" vertex="1">
          <mxGeometry x="1115" y="330" width="110" height="50" as="geometry" />
        </mxCell>
        <mxCell id="aPVoymppLge1yWd1zrWZ-91" value="" style="strokeWidth=2;html=1;shape=mxgraph.flowchart.annotation_1;align=left;pointerEvents=1;direction=south;fillColor=#f8cecc;strokeColor=#b85450;" parent="1" vertex="1">
          <mxGeometry x="1025" y="390" width="290" height="20" as="geometry" />
        </mxCell>
        <mxCell id="aPVoymppLge1yWd1zrWZ-110" style="edgeStyle=orthogonalEdgeStyle;rounded=0;orthogonalLoop=1;jettySize=auto;html=1;exitX=1;exitY=0;exitDx=0;exitDy=0;entryX=1;entryY=0.75;entryDx=0;entryDy=0;curved=1;fillColor=#d5e8d4;strokeColor=#82b366;dashed=1;" parent="1" source="aPVoymppLge1yWd1zrWZ-105" target="aPVoymppLge1yWd1zrWZ-83" edge="1">
          <mxGeometry relative="1" as="geometry" />
        </mxCell>
        <mxCell id="aPVoymppLge1yWd1zrWZ-140" value="&lt;div&gt;Proceed&lt;/div&gt;&lt;div&gt;if no&lt;/div&gt;&lt;div&gt;conflict&lt;/div&gt;" style="edgeLabel;html=1;align=center;verticalAlign=middle;resizable=0;points=[];fontColor=#97D077;" parent="aPVoymppLge1yWd1zrWZ-110" vertex="1" connectable="0">
          <mxGeometry x="0.0892" y="-3" relative="1" as="geometry">
            <mxPoint as="offset" />
          </mxGeometry>
        </mxCell>
        <mxCell id="aPVoymppLge1yWd1zrWZ-113" style="edgeStyle=orthogonalEdgeStyle;rounded=0;orthogonalLoop=1;jettySize=auto;html=1;exitX=1;exitY=0.75;exitDx=0;exitDy=0;entryX=1;entryY=0.75;entryDx=0;entryDy=0;curved=1;fillColor=#d5e8d4;strokeColor=#82b366;dashed=1;" parent="1" source="aPVoymppLge1yWd1zrWZ-105" target="aPVoymppLge1yWd1zrWZ-81" edge="1">
          <mxGeometry relative="1" as="geometry">
            <Array as="points">
              <mxPoint x="1331.75" y="472" />
            </Array>
          </mxGeometry>
        </mxCell>
        <mxCell id="aPVoymppLge1yWd1zrWZ-105" value="&lt;div&gt;&lt;b&gt;&lt;font style=&quot;font-size: 16px;&quot;&gt;Hashmap&lt;/font&gt;&lt;br&gt;&lt;/b&gt;&lt;/div&gt;&lt;div&gt;&lt;font data-font-src=&quot;https://fonts.googleapis.com/css?family=IBM+Plex+Mono&quot; face=&quot;IBM Plex Mono&quot;&gt;uid-&amp;gt;task[]&lt;b&gt;&lt;br&gt;&lt;/b&gt;&lt;/font&gt;&lt;/div&gt;" style="shape=trapezoid;perimeter=trapezoidPerimeter;whiteSpace=wrap;html=1;fixedSize=1;size=37.5;fillColor=#d5e8d4;strokeColor=#82b366;" parent="1" vertex="1">
          <mxGeometry x="1155" y="690" width="187.5" height="60" as="geometry" />
        </mxCell>
        <mxCell id="aPVoymppLge1yWd1zrWZ-120" style="edgeStyle=orthogonalEdgeStyle;rounded=0;orthogonalLoop=1;jettySize=auto;html=1;exitX=1;exitY=0.5;exitDx=0;exitDy=0;entryX=0;entryY=0;entryDx=0;entryDy=97.5;entryPerimeter=0;curved=1;" parent="1" source="aPVoymppLge1yWd1zrWZ-36" target="aPVoymppLge1yWd1zrWZ-80" edge="1">
          <mxGeometry relative="1" as="geometry" />
        </mxCell>
        <mxCell id="aPVoymppLge1yWd1zrWZ-123" value="&lt;div&gt;Push&lt;/div&gt;" style="edgeLabel;html=1;align=center;verticalAlign=middle;resizable=0;points=[];" parent="aPVoymppLge1yWd1zrWZ-120" vertex="1" connectable="0">
          <mxGeometry x="0.0056" y="-1" relative="1" as="geometry">
            <mxPoint as="offset" />
          </mxGeometry>
        </mxCell>
        <mxCell id="aPVoymppLge1yWd1zrWZ-121" style="edgeStyle=orthogonalEdgeStyle;rounded=0;orthogonalLoop=1;jettySize=auto;html=1;exitX=1;exitY=0.25;exitDx=0;exitDy=0;entryX=0;entryY=0;entryDx=0;entryDy=42.5;entryPerimeter=0;curved=1;" parent="1" source="aPVoymppLge1yWd1zrWZ-32" target="aPVoymppLge1yWd1zrWZ-80" edge="1">
          <mxGeometry relative="1" as="geometry" />
        </mxCell>
        <mxCell id="aPVoymppLge1yWd1zrWZ-122" value="&lt;div&gt;Push&lt;/div&gt;" style="edgeLabel;html=1;align=center;verticalAlign=middle;resizable=0;points=[];" parent="aPVoymppLge1yWd1zrWZ-121" vertex="1" connectable="0">
          <mxGeometry x="0.014" relative="1" as="geometry">
            <mxPoint as="offset" />
          </mxGeometry>
        </mxCell>
        <mxCell id="aPVoymppLge1yWd1zrWZ-132" value="&lt;div&gt;&lt;font style=&quot;font-size: 16px;&quot;&gt;&lt;b&gt;Hashmap&lt;/b&gt;&lt;br&gt;&lt;/font&gt;&lt;/div&gt;&lt;div&gt;&lt;font data-font-src=&quot;https://fonts.googleapis.com/css?family=IBM+Plex+Mono&quot; face=&quot;IBM Plex Mono&quot;&gt;uuid-&amp;gt;answer&lt;font&gt;&lt;br&gt;&lt;/font&gt;&lt;/font&gt;&lt;/div&gt;" style="shape=trapezoid;perimeter=trapezoidPerimeter;whiteSpace=wrap;html=1;fixedSize=1;fillColor=#d0cee2;strokeColor=#56517e;direction=north;size=40;" parent="1" vertex="1">
          <mxGeometry x="1365" y="630" width="110" height="130" as="geometry" />
        </mxCell>
        <mxCell id="aPVoymppLge1yWd1zrWZ-150" style="edgeStyle=orthogonalEdgeStyle;rounded=0;orthogonalLoop=1;jettySize=auto;html=1;exitX=0;exitY=0.5;exitDx=0;exitDy=0;entryX=1;entryY=0.5;entryDx=0;entryDy=0;entryPerimeter=0;curved=1;" parent="1" source="aPVoymppLge1yWd1zrWZ-81" target="aPVoymppLge1yWd1zrWZ-80" edge="1">
          <mxGeometry relative="1" as="geometry">
            <Array as="points">
              <mxPoint x="1159" y="460" />
              <mxPoint x="1159" y="553" />
              <mxPoint x="1105" y="553" />
            </Array>
          </mxGeometry>
        </mxCell>
        <mxCell id="aPVoymppLge1yWd1zrWZ-151" value="&lt;div&gt;Pop&lt;/div&gt;" style="edgeLabel;html=1;align=center;verticalAlign=middle;resizable=0;points=[];" parent="aPVoymppLge1yWd1zrWZ-150" vertex="1" connectable="0">
          <mxGeometry x="-0.0062" y="1" relative="1" as="geometry">
            <mxPoint as="offset" />
          </mxGeometry>
        </mxCell>
        <mxCell id="aPVoymppLge1yWd1zrWZ-153" style="edgeStyle=orthogonalEdgeStyle;rounded=0;orthogonalLoop=1;jettySize=auto;html=1;exitX=0;exitY=0.5;exitDx=0;exitDy=0;entryX=1;entryY=0.5;entryDx=0;entryDy=0;entryPerimeter=0;curved=1;" parent="1" source="aPVoymppLge1yWd1zrWZ-82" target="aPVoymppLge1yWd1zrWZ-80" edge="1">
          <mxGeometry relative="1" as="geometry" />
        </mxCell>
        <mxCell id="aPVoymppLge1yWd1zrWZ-154" value="Pop" style="edgeLabel;html=1;align=center;verticalAlign=middle;resizable=0;points=[];" parent="aPVoymppLge1yWd1zrWZ-153" vertex="1" connectable="0">
          <mxGeometry x="-0.0131" y="-2" relative="1" as="geometry">
            <mxPoint as="offset" />
          </mxGeometry>
        </mxCell>
        <mxCell id="aPVoymppLge1yWd1zrWZ-163" value="&lt;div align=&quot;left&quot;&gt;&lt;ol&gt;&lt;li&gt;Establish direct channel of communication w/ client&lt;/li&gt;&lt;li&gt;&lt;font face=&quot;Helvetica&quot;&gt;Receive task&lt;br&gt;&lt;/font&gt;&lt;/li&gt;&lt;li&gt;Push &lt;font data-font-src=&quot;https://fonts.googleapis.com/css?family=IBM+Plex+Mono&quot; face=&quot;IBM Plex Mono&quot;&gt;{task, UUID, cond_t}&lt;/font&gt;&lt;/li&gt;&lt;li&gt;Block on the conditional variable&lt;/li&gt;&lt;li&gt;Wake up &amp;amp; read answer from map&lt;/li&gt;&lt;li&gt;Send to client&lt;br&gt;&lt;/li&gt;&lt;/ol&gt;&lt;/div&gt;" style="shape=process;whiteSpace=wrap;html=1;backgroundOutline=1;align=left;fillColor=#ffe6cc;strokeColor=#d79b00;sketch=1;curveFitting=1;jiggle=2;" parent="1" vertex="1">
          <mxGeometry x="657.5" y="140" width="325" height="170" as="geometry" />
        </mxCell>
        <mxCell id="aPVoymppLge1yWd1zrWZ-164" value="&lt;div align=&quot;left&quot;&gt;&lt;ol&gt;&lt;li&gt;&lt;font face=&quot;Helvetica&quot;&gt;Pop task&lt;br&gt;&lt;/font&gt;&lt;/li&gt;&lt;li&gt;&lt;font face=&quot;Helvetica&quot;&gt;Block thread till conflicting task in map&lt;br&gt;&lt;/font&gt;&lt;/li&gt;&lt;li&gt;&lt;font face=&quot;Helvetica&quot;&gt;Add task to hashmap&lt;br&gt;&lt;/font&gt;&lt;/li&gt;&lt;li&gt;&lt;font face=&quot;Helvetica&quot;&gt;Complete task&lt;br&gt;&lt;/font&gt;&lt;/li&gt;&lt;li&gt;&lt;font face=&quot;Helvetica&quot;&gt;Delete task&#39;s entry&lt;/font&gt;&lt;/li&gt;&lt;li&gt;&lt;font face=&quot;Helvetica&quot;&gt;Write status to answer hashmap&lt;br&gt;&lt;/font&gt;&lt;/li&gt;&lt;li&gt;&lt;font face=&quot;Helvetica&quot;&gt;Signal the conditional variable passed as the argument&lt;br&gt;&lt;/font&gt;&lt;/li&gt;&lt;/ol&gt;&lt;/div&gt;" style="shape=process;whiteSpace=wrap;html=1;backgroundOutline=1;align=left;fillColor=#f8cecc;strokeColor=#b85450;shadow=0;sketch=1;curveFitting=1;jiggle=2;" parent="1" vertex="1">
          <mxGeometry x="1008.75" y="140" width="322.5" height="170" as="geometry" />
        </mxCell>
      </root>
    </mxGraphModel>
  </diagram>
</mxfile>
